<svg width="147" height="40" viewBox="0 0 147 40" fill="none" xmlns="http://www.w3.org/2000/svg">
<g clip-path="url(#clip0_769_570)">
<path d="M76.3742 4.75635H75.5933V35.9993H76.3742V4.75635Z" fill="#bcbec0"></path>
<mask id="mask0_769_570" style="mask-type:luminance" maskUnits="userSpaceOnUse" x="-7" y="-5" width="170" height="50">
<path d="M163 -5H-7V45H163V-5Z" fill="white"></path>
</mask>
<g mask="url(#mask0_769_570)">
<path d="M35.2277 25.5781H33.3767V20.2563C33.3767 19.1358 32.8832 18.5327 31.9865 18.4632C31.4276 18.4198 30.5416 18.5517 29.8985 18.6961V25.5781H28.0469V17.3783C28.0469 17.3783 30.2982 16.8763 32.3315 16.8774C33.211 16.8786 33.9141 17.1912 34.439 17.7182C34.9646 18.2452 35.2277 18.9789 35.2277 19.92V25.5781Z" fill="#bcbec0"></path>
</g>
<mask id="mask1_769_570" style="mask-type:luminance" maskUnits="userSpaceOnUse" x="-7" y="-5" width="170" height="50">
<path d="M163 -5H-7V45H163V-5Z" fill="white"></path>
</mask>
<g mask="url(#mask1_769_570)">
<path d="M66.4486 25.6344C66.1446 25.7123 65.8287 25.7503 65.5014 25.7503C64.4581 25.7503 63.7692 25.5186 63.4337 25.054C63.1652 24.6892 63.0322 23.9976 63.0322 22.9792V14.4456H64.8589V16.859H66.4813V18.352H64.8589V22.8634C64.8589 23.35 64.9207 23.6714 65.0448 23.8265C65.1915 24.0249 65.5014 24.1247 65.9759 24.1247C66.1107 24.1247 66.2687 24.1134 66.4486 24.0914V25.6344Z" fill="#bcbec0"></path>
</g>
<mask id="mask2_769_570" style="mask-type:luminance" maskUnits="userSpaceOnUse" x="-7" y="-5" width="170" height="50">
<path d="M163 -5H-7V45H163V-5Z" fill="white"></path>
</mask>
<g mask="url(#mask2_769_570)">
<path d="M9.2525 20.0241C9.2525 20.0241 7.08555 20.8625 4.41087 20.8625C1.73737 20.8625 -0.430176 20.0241 -0.430176 20.0241C-0.430176 20.0241 1.73737 19.1858 4.41087 19.1858C7.08555 19.1858 9.2525 20.0241 9.2525 20.0241Z" fill="#FFCD00"></path>
</g>
<mask id="mask3_769_570" style="mask-type:luminance" maskUnits="userSpaceOnUse" x="-7" y="-5" width="170" height="50">
<path d="M163 -5H-7V45H163V-5Z" fill="white"></path>
</mask>
<g mask="url(#mask3_769_570)">
<path d="M15.9468 7.69559C15.9468 7.69559 14.0269 6.40155 12.5316 4.22758C11.0363 2.05302 10.5327 -0.177979 10.5327 -0.177979C10.5327 -0.177979 12.4526 1.11606 13.9485 3.29003C15.4432 5.46459 15.9468 7.69559 15.9468 7.69559Z" fill="#FFCD00"></path>
</g>
<mask id="mask4_769_570" style="mask-type:luminance" maskUnits="userSpaceOnUse" x="-7" y="-5" width="170" height="50">
<path d="M163 -5H-7V45H163V-5Z" fill="white"></path>
</mask>
<g mask="url(#mask4_769_570)">
<path d="M11.0437 13.0151C11.0437 13.0151 8.72883 12.7572 6.3677 11.5256C4.00716 10.2945 2.49463 8.55664 2.49463 8.55664C2.49463 8.55664 4.80944 8.8145 7.17058 10.0456C9.53112 11.2772 11.0437 13.0151 11.0437 13.0151Z" fill="#FFCD00"></path>
</g>
<mask id="mask5_769_570" style="mask-type:luminance" maskUnits="userSpaceOnUse" x="-7" y="-5" width="170" height="50">
<path d="M163 -5H-7V45H163V-5Z" fill="white"></path>
</mask>
<g mask="url(#mask5_769_570)">
<path d="M15.7146 24.0601C17.0887 24.0477 18.7462 22.9645 18.7462 22.9645C18.7462 22.9645 14.9034 21.8006 15.1451 18.3522C15.9028 12.6924 20.4826 8.24944 26.2168 7.53409C25.6087 7.45032 24.9875 7.40635 24.3551 7.40932C17.2633 7.44022 11.5404 13.1054 11.5719 20.0616C11.604 27.0178 17.3791 32.6312 24.4709 32.5997C25.0623 32.5974 25.6431 32.5522 26.2132 32.4738C21.1809 31.8452 17.0852 28.3641 15.616 23.7655" fill="#FFCD00"></path>
</g>
<mask id="mask6_769_570" style="mask-type:luminance" maskUnits="userSpaceOnUse" x="-7" y="-5" width="170" height="50">
<path d="M163 -5H-7V45H163V-5Z" fill="white"></path>
</mask>
<g mask="url(#mask6_769_570)">
<path d="M15.9468 32.3044C15.9468 32.3044 14.0269 33.5985 12.5316 35.773C11.0363 37.9464 10.5327 40.178 10.5327 40.178C10.5327 40.178 12.4526 38.884 13.9485 36.71C15.4432 34.536 15.9468 32.3044 15.9468 32.3044Z" fill="#FFCD00"></path>
</g>
<mask id="mask7_769_570" style="mask-type:luminance" maskUnits="userSpaceOnUse" x="-7" y="-5" width="170" height="50">
<path d="M163 -5H-7V45H163V-5Z" fill="white"></path>
</mask>
<g mask="url(#mask7_769_570)">
<path d="M11.0437 26.9851C11.0437 26.9851 8.72883 27.2436 6.3677 28.4746C4.00716 29.7051 2.49463 31.4435 2.49463 31.4435C2.49463 31.4435 4.80944 31.1851 7.17058 29.954C9.53112 28.7236 11.0437 26.9851 11.0437 26.9851Z" fill="#FFCD00"></path>
</g>
<mask id="mask8_769_570" style="mask-type:luminance" maskUnits="userSpaceOnUse" x="-7" y="-5" width="170" height="50">
<path d="M163 -5H-7V45H163V-5Z" fill="white"></path>
</mask>
<g mask="url(#mask8_769_570)">
<path d="M26.2168 14.4368H24.3296V25.5692H26.2168V14.4368Z" fill="#bcbec0"></path>
</g>
<mask id="mask9_769_570" style="mask-type:luminance" maskUnits="userSpaceOnUse" x="-7" y="-5" width="170" height="50">
<path d="M163 -5H-7V45H163V-5Z" fill="white"></path>
</mask>
<g mask="url(#mask9_769_570)">
<path d="M45.1599 18.2411C45.1599 19.3801 44.8065 20.2957 44.1034 20.9878C43.3979 21.6788 42.4412 22.0246 41.2345 22.0246H38.9464V25.5425H37.0586V14.4077H41.0997C42.4074 14.4077 43.4116 14.7488 44.1111 15.429C44.8101 16.1093 45.1599 17.0463 45.1599 18.2411ZM43.2524 18.2411C43.2524 16.8912 42.5927 16.2169 41.2737 16.2169H38.9464V20.2327H41.2387C41.8705 20.2327 42.3646 20.0586 42.7197 19.7098C43.0749 19.3611 43.2524 18.8721 43.2524 18.2411Z" fill="#bcbec0"></path>
</g>
<mask id="mask10_769_570" style="mask-type:luminance" maskUnits="userSpaceOnUse" x="-7" y="-5" width="170" height="50">
<path d="M163 -5H-7V45H163V-5Z" fill="white"></path>
</mask>
<g mask="url(#mask10_769_570)">
<path d="M53.8969 21.157C53.8969 22.4962 53.5215 23.5746 52.7715 24.3933C52.0209 25.212 51.0494 25.6214 49.8534 25.6214C48.6585 25.6214 47.6852 25.212 46.9358 24.3933C46.1852 23.5746 45.811 22.4962 45.811 21.157C45.811 19.819 46.1852 18.743 46.9358 17.9296C47.6852 17.1174 48.6585 16.7104 49.8534 16.7104C51.06 16.7104 52.0357 17.1174 52.7804 17.9296C53.5245 18.743 53.8969 19.819 53.8969 21.157ZM51.9853 21.1659C51.9853 20.3276 51.7905 19.6633 51.4027 19.1726C51.0119 18.6818 50.4965 18.4358 49.8534 18.4358C49.2114 18.4358 48.6948 18.6848 48.3052 19.1809C47.9174 19.677 47.7226 20.3383 47.7226 21.1659C47.7226 22.0043 47.9174 22.6685 48.3052 23.1593C48.6948 23.65 49.2114 23.8954 49.8534 23.8954C50.4965 23.8954 51.0119 23.65 51.4027 23.1593C51.7905 22.6685 51.9853 22.0043 51.9853 21.1659Z" fill="#bcbec0"></path>
</g>
<mask id="mask11_769_570" style="mask-type:luminance" maskUnits="userSpaceOnUse" x="-7" y="-5" width="170" height="50">
<path d="M163 -5H-7V45H163V-5Z" fill="white"></path>
</mask>
<g mask="url(#mask11_769_570)">
<path d="M61.9365 22.7008C61.9365 23.5421 61.6093 24.2331 60.9549 24.7749C60.3017 25.3174 59.4376 25.5871 58.3675 25.5871C56.6976 25.5871 55.4066 25.0898 54.4927 24.0946L55.8971 22.9164C56.5961 23.6033 57.4144 23.9455 58.3497 23.9455C58.8693 23.9455 59.2809 23.8433 59.5855 23.6383C59.8901 23.4333 60.0422 23.1773 60.0422 22.8671C60.0422 22.5136 59.867 22.2694 59.5178 22.1369C59.3147 22.0597 58.7731 21.9545 57.8936 21.8214C56.8336 21.667 56.0777 21.4346 55.6263 21.1245C55.096 20.749 54.8324 20.1846 54.8324 19.433C54.8324 18.6689 55.153 18.0302 55.7956 17.5151C56.4381 17.0012 57.2956 16.7439 58.3675 16.7439C59.6633 16.7439 60.769 17.1699 61.683 18.0219L60.5832 19.1834C59.9181 18.5976 59.1621 18.3035 58.3159 18.3035C57.2333 18.3035 56.6923 18.6083 56.6923 19.2167C56.6923 19.5702 56.9399 19.8144 57.437 19.9469C58.1359 20.0568 58.8295 20.1733 59.5178 20.2951C61.1301 20.5939 61.9365 21.396 61.9365 22.7008Z" fill="#bcbec0"></path>
</g>
<mask id="mask12_769_570" style="mask-type:luminance" maskUnits="userSpaceOnUse" x="-7" y="-5" width="170" height="50">
<path d="M163 -5H-7V45H163V-5Z" fill="white"></path>
</mask>
<g mask="url(#mask12_769_570)">
<path d="M92.6613 16.6036C90.9361 16.6036 89.2098 16.2762 87.9004 15.6714L88.5928 13.9448C89.7775 14.4991 91.2758 14.852 92.7373 14.852C94.425 14.852 95.3193 14.4866 95.3193 13.8438C95.3193 13.3774 94.9535 13.1635 93.9208 13.012L91.5282 12.6846C89.2603 12.3697 88.2911 11.5759 88.2911 10.1767C88.2911 8.3747 90.0287 7.30347 92.7747 7.30347C94.425 7.30347 96.0373 7.61836 97.2083 8.14834L96.5153 9.78579C95.3567 9.30751 94.0592 9.055 92.6737 9.055C91.2509 9.055 90.445 9.39544 90.445 10.0128C90.445 10.4411 90.7847 10.6556 91.9938 10.8321L94.3116 11.1594C96.4904 11.4749 97.4857 12.2182 97.4857 13.6929C97.4857 15.5704 95.76 16.6036 92.6613 16.6036Z" fill="#bcbec0"></path>
</g>
<mask id="mask13_769_570" style="mask-type:luminance" maskUnits="userSpaceOnUse" x="-7" y="-5" width="170" height="50">
<path d="M163 -5H-7V45H163V-5Z" fill="white"></path>
</mask>
<g mask="url(#mask13_769_570)">
<path d="M105.747 9.50952V10.9081L101.352 14.8271H105.986V16.4277H98.5049V15.0416L102.901 11.1226H98.6314V9.50952H105.747Z" fill="#bcbec0"></path>
</g>
<mask id="mask14_769_570" style="mask-type:luminance" maskUnits="userSpaceOnUse" x="-7" y="-5" width="170" height="50">
<path d="M163 -5H-7V45H163V-5Z" fill="white"></path>
</mask>
<g mask="url(#mask14_769_570)">
<path d="M108.807 17.423C109.487 17.423 109.852 17.0826 110.016 16.5407L106.439 9.50903H108.82L111.112 14.5878L113.354 9.50903H115.583L111.666 17.3725C110.986 18.7462 110.394 19.0991 108.706 19.0991H107.044V17.423H108.807Z" fill="#bcbec0"></path>
</g>
<mask id="mask15_769_570" style="mask-type:luminance" maskUnits="userSpaceOnUse" x="-7" y="-5" width="170" height="50">
<path d="M163 -5H-7V45H163V-5Z" fill="white"></path>
</mask>
<g mask="url(#mask15_769_570)">
<path d="M118.329 7.00171V10.3283C118.984 9.69792 119.916 9.33312 121.062 9.33312C123.342 9.33312 125.03 10.7567 125.03 12.9746C125.03 15.1801 123.342 16.6036 121.062 16.6036C119.904 16.6036 118.934 16.2382 118.278 15.5835V16.4278H116.301V7.00171H118.329ZM120.684 10.9836C119.273 10.9836 118.329 11.7774 118.329 12.9746C118.329 14.1718 119.273 14.9531 120.684 14.9531C122.044 14.9531 122.964 14.1718 122.964 12.9746C122.964 11.7774 122.044 10.9836 120.684 10.9836Z" fill="#bcbec0"></path>
</g>
<mask id="mask16_769_570" style="mask-type:luminance" maskUnits="userSpaceOnUse" x="-7" y="-5" width="170" height="50">
<path d="M163 -5H-7V45H163V-5Z" fill="white"></path>
</mask>
<g mask="url(#mask16_769_570)">
<path d="M126.201 16.4278V7.00171H128.228V12.5967L131.944 9.50958H134.576L131.201 12.3068L134.677 16.4278H132.057L129.702 13.4915L128.228 14.7392V16.4278H126.201Z" fill="#bcbec0"></path>
</g>
<mask id="mask17_769_570" style="mask-type:luminance" maskUnits="userSpaceOnUse" x="-7" y="-5" width="170" height="50">
<path d="M163 -5H-7V45H163V-5Z" fill="white"></path>
</mask>
<g mask="url(#mask17_769_570)">
<path d="M136.301 6.49731C137.057 6.49731 137.498 7.03917 137.498 7.64401C137.498 8.23637 137.057 8.77822 136.301 8.77822C135.533 8.77822 135.104 8.23637 135.104 7.64401C135.104 7.03917 135.533 6.49731 136.301 6.49731ZM137.308 16.4272H135.281V9.50902H137.308V16.4272Z" fill="#bcbec0"></path>
</g>
<mask id="mask18_769_570" style="mask-type:luminance" maskUnits="userSpaceOnUse" x="-7" y="-5" width="170" height="50">
<path d="M163 -5H-7V45H163V-5Z" fill="white"></path>
</mask>
<g mask="url(#mask18_769_570)">
<path d="M142.862 9.33301C145.507 9.33301 147.119 10.769 147.119 12.5711C147.119 12.987 147.094 13.2264 147.082 13.4154H140.558C140.696 14.3606 141.591 14.953 143.114 14.953C144.198 14.953 145.231 14.6001 145.86 14.0582L146.943 15.2804C146.2 16.0997 144.664 16.6035 142.926 16.6035C140.167 16.6035 138.479 15.2804 138.479 12.987C138.479 10.832 140.281 9.33301 142.862 9.33301ZM140.62 12.1427H144.979C144.853 11.3994 144.135 10.8576 142.888 10.8576C141.703 10.8576 140.835 11.3365 140.62 12.1427Z" fill="#bcbec0"></path>
</g>
<mask id="mask19_769_570" style="mask-type:luminance" maskUnits="userSpaceOnUse" x="-7" y="-5" width="170" height="50">
<path d="M163 -5H-7V45H163V-5Z" fill="white"></path>
</mask>
<g mask="url(#mask19_769_570)">
<path d="M87.6099 29.5321L93.6113 23.9347H87.832V22.2581H96.6304V23.6757L90.5553 29.3349H96.8768V31.0115H87.6099V29.5321Z" fill="#bcbec0"></path>
</g>
<mask id="mask20_769_570" style="mask-type:luminance" maskUnits="userSpaceOnUse" x="-7" y="-5" width="170" height="50">
<path d="M163 -5H-7V45H163V-5Z" fill="white"></path>
</mask>
<g mask="url(#mask20_769_570)">
<path d="M104.037 26.2275L102.151 31.0115H99.9821L97.0615 24.2424H99.3288L101.141 29.0508L103.014 24.2424H105.146L107.056 29.0265L108.88 24.2424H111.024L108.104 31.0115H105.922L104.037 26.2275Z" fill="#bcbec0"></path>
</g>
<mask id="mask21_769_570" style="mask-type:luminance" maskUnits="userSpaceOnUse" x="-7" y="-5" width="170" height="50">
<path d="M163 -5H-7V45H163V-5Z" fill="white"></path>
</mask>
<g mask="url(#mask21_769_570)">
<path d="M113.771 31.0115H111.787V24.2424H113.722V25.4265C113.845 25.2043 114.005 25.0071 114.215 24.7973C114.658 24.3161 115.176 24.1069 115.964 24.1069C116.248 24.1069 116.47 24.1319 116.679 24.1806L116.568 25.8703C116.347 25.8454 116.088 25.821 115.792 25.821C115.164 25.821 114.745 25.944 114.412 26.2518C113.956 26.6837 113.771 27.2137 113.771 28.1631V31.0115Z" fill="#bcbec0"></path>
</g>
<mask id="mask22_769_570" style="mask-type:luminance" maskUnits="userSpaceOnUse" x="-7" y="-5" width="170" height="50">
<path d="M163 -5H-7V45H163V-5Z" fill="white"></path>
</mask>
<g mask="url(#mask22_769_570)">
<path d="M121.276 24.0701C123.925 24.0701 125.576 25.4627 125.576 27.6331C125.576 29.7911 123.925 31.1837 121.276 31.1837C118.626 31.1837 116.975 29.7911 116.975 27.6331C116.975 25.4627 118.626 24.0701 121.276 24.0701ZM121.276 25.6731C119.883 25.6731 118.996 26.4252 118.996 27.6331C118.996 28.8416 119.883 29.5813 121.276 29.5813C122.668 29.5813 123.556 28.8416 123.556 27.6331C123.556 26.4252 122.668 25.6731 121.276 25.6731Z" fill="#bcbec0"></path>
</g>
<mask id="mask23_769_570" style="mask-type:luminance" maskUnits="userSpaceOnUse" x="-7" y="-5" width="170" height="50">
<path d="M163 -5H-7V45H163V-5Z" fill="white"></path>
</mask>
<g mask="url(#mask23_769_570)">
<path d="M129.347 31.0116C128.053 31.0116 127.411 30.5304 127.411 29.187V25.8212H126.155V24.2426H127.411V22.4304H129.396V24.2426H131.824V25.8212H129.396V28.7432C129.396 29.2613 129.568 29.4086 130.172 29.4086H131.824V31.0116H129.347Z" fill="#bcbec0"></path>
</g>
<mask id="mask24_769_570" style="mask-type:luminance" maskUnits="userSpaceOnUse" x="-7" y="-5" width="170" height="50">
<path d="M163 -5H-7V45H163V-5Z" fill="white"></path>
</mask>
<g mask="url(#mask24_769_570)">
<path d="M134.572 31.986C135.237 31.986 135.595 31.6527 135.755 31.1227L132.255 24.2432H134.584L136.827 29.2114L139.02 24.2432H141.202L137.369 31.9367C136.704 33.2807 136.124 33.6259 134.473 33.6259H132.847V31.986H134.572Z" fill="#bcbec0"></path>
</g>
</g>
<defs>
<clipPath id="clip0_769_570">
<rect width="147" height="40" fill="white"></rect>
</clipPath>
</defs>
</svg>