<svg xmlns="http://www.w3.org/2000/svg" version="1.1" xmlns:xlink="http://www.w3.org/1999/xlink" xmlns:svgjs="http://svgjs.dev/svgjs" width="512" height="512"><svg version="1.1" xmlns="http://www.w3.org/2000/svg" width="512" height="512">
<path d="M0 0 C1.14191803 -0.00095673 2.28383606 -0.00191345 3.46035767 -0.00289917 C5.86240698 -0.00357735 8.26445815 -0.0017484 10.66650391 0.00244141 C14.35974172 0.00782442 18.05285955 0.002469 21.74609375 -0.00390625 C24.08072944 -0.00324599 26.41536505 -0.0019659 28.75 0 C29.86031586 -0.00202423 30.97063171 -0.00404846 32.11459351 -0.00613403 C33.13300323 -0.00298187 34.15141296 0.00017029 35.20068359 0.00341797 C36.10112396 0.00421356 37.00156433 0.00500916 37.92929077 0.00582886 C39.9765625 0.1328125 39.9765625 0.1328125 40.9765625 1.1328125 C41.07637001 3.73758234 41.11017543 6.31588745 41.10240364 8.92119598 C41.10385708 9.75104171 41.10531052 10.58088744 41.10680801 11.43588001 C41.11049514 14.25280339 41.10696912 17.06967358 41.10354614 19.88659668 C41.10469689 21.91202431 41.1062841 23.93745173 41.10827339 25.9628787 C41.11247306 31.55686709 41.11037316 37.15083856 41.10728717 42.74482703 C41.10503587 48.76669925 41.10851133 54.78856844 41.11126709 60.81044006 C41.11546854 71.93493684 41.11508783 83.05942815 41.11235562 94.18392481 C41.10984421 104.45932265 41.10918142 114.73471849 41.11037827 125.01011658 C41.11049284 126.03084018 41.11049284 126.03084018 41.11060974 127.07218447 C41.11092105 129.83419304 41.11123945 132.59620162 41.1115695 135.35821019 C41.11463139 161.290156 41.11185047 187.22209834 41.1064726 213.15404361 C41.10172668 236.21418848 41.10215129 259.27432783 41.10693359 282.33447266 C41.11228336 308.21772042 41.11441427 334.10096511 41.11132133 359.98421335 C41.11100059 362.74131171 41.11068775 365.49841007 41.11037827 368.25550842 C41.11029919 368.93442139 41.11022011 369.61333435 41.11013864 370.31282043 C41.10899915 380.58403099 41.11033518 390.85523933 41.11285782 401.12644958 C41.1157106 412.80036556 41.11491936 424.47427625 41.10957707 436.14819181 C41.10693891 442.11071097 41.10593693 448.0732189 41.10922623 454.03573799 C41.11218684 459.48463693 41.11060034 464.93351412 41.10524867 470.38241106 C41.10412347 472.36287017 41.10471791 474.34333109 41.10712446 476.32378906 C41.11012623 478.99736256 41.10708629 481.67085964 41.10240364 484.34442902 C41.10474481 485.12924977 41.10708597 485.91407052 41.10949808 486.72267371 C41.09071284 492.01866216 41.09071284 492.01866216 39.9765625 493.1328125 C38.42186995 493.23127711 36.8627385 493.26079863 35.30493164 493.26220703 C34.31042496 493.26535919 33.31591827 493.26851135 32.29127502 493.27175903 C31.20902145 493.2697348 30.12676788 493.26771057 29.01171875 493.265625 C27.35625282 493.26706009 27.35625282 493.26706009 25.66734314 493.26852417 C23.32778873 493.26920622 20.98823244 493.2673502 18.64868164 493.26318359 C15.05806236 493.25784077 11.46756846 493.26312516 7.87695312 493.26953125 C5.60937472 493.26887037 3.3417964 493.26758901 1.07421875 493.265625 C-0.00601059 493.26764923 -1.08623993 493.26967346 -2.19920349 493.27175903 C-3.19686234 493.26860687 -4.19452118 493.26545471 -5.22241211 493.26220703 C-6.54359291 493.26101364 -6.54359291 493.26101364 -7.89146423 493.25979614 C-10.0234375 493.1328125 -10.0234375 493.1328125 -12.0234375 492.1328125 C-12.0234375 463.0928125 -12.0234375 434.0528125 -12.0234375 404.1328125 C-13.6734375 404.1328125 -15.3234375 404.1328125 -17.0234375 404.1328125 C-17.3534375 403.8028125 -17.6834375 403.4728125 -18.0234375 403.1328125 C-19.38296805 402.86079375 -20.75281354 402.63995552 -22.125 402.44140625 C-42.50012327 399.2685093 -60.87406827 392.83768355 -79.0234375 383.1328125 C-80.79166226 382.2732588 -82.56218006 381.41839028 -84.3359375 380.5703125 C-101.90819728 371.71132913 -117.05543369 358.82285604 -131.0234375 345.1328125 C-131.61777588 344.5567627 -132.21211426 343.98071289 -132.82446289 343.38720703 C-136.6171956 339.66698623 -140.08220457 335.83117757 -143.3359375 331.6328125 C-144.03360229 330.7365918 -144.03360229 330.7365918 -144.74536133 329.82226562 C-166.82847991 301.08093912 -182.77545656 267.37215456 -187.0234375 231.1328125 C-187.12350098 230.33182129 -187.22356445 229.53083008 -187.32666016 228.70556641 C-193.63588932 177.38719058 -181.68106634 122.9946429 -149.7890625 81.6015625 C-145.35035541 75.9821467 -140.72105459 70.53617488 -136.0234375 65.1328125 C-135.37503906 64.36066406 -134.72664063 63.58851562 -134.05859375 62.79296875 C-130.69726666 58.82187711 -127.15544797 55.34009111 -123.18359375 51.98046875 C-120.77980526 49.92442543 -118.47056311 47.78050614 -116.1484375 45.6328125 C-111.35772622 41.33419845 -106.42465446 37.62771759 -101.0234375 34.1328125 C-100.41032715 33.73336426 -99.7972168 33.33391602 -99.16552734 32.92236328 C-74.36399303 16.88550448 -48.10629495 6.31687367 -19.0234375 1.1328125 C-17.50786255 0.86017578 -17.50786255 0.86017578 -15.96166992 0.58203125 C-10.63125834 -0.02598792 -5.36060086 -0.00988107 0 0 Z M-24.8984375 54.6328125 C-26.05085938 54.91125 -27.20328125 55.1896875 -28.390625 55.4765625 C-29.25945312 55.693125 -30.12828125 55.9096875 -31.0234375 56.1328125 C-31.0234375 56.7928125 -31.0234375 57.4528125 -31.0234375 58.1328125 C-31.56871094 58.23078125 -32.11398438 58.32875 -32.67578125 58.4296875 C-46.78342473 61.22710057 -59.17389898 69.29416878 -71.0234375 77.1328125 C-71.76464844 77.62265625 -72.50585938 78.1125 -73.26953125 78.6171875 C-74.89619152 79.72999332 -76.46772051 80.9228104 -78.0234375 82.1328125 C-78.0234375 82.7928125 -78.0234375 83.4528125 -78.0234375 84.1328125 C-79.1371875 84.473125 -79.1371875 84.473125 -80.2734375 84.8203125 C-83.58209955 86.39944666 -84.81808176 88.2382831 -87.0234375 91.1328125 C-87.7865625 91.7309375 -88.5496875 92.3290625 -89.3359375 92.9453125 C-93.03494234 95.95613039 -95.95609762 99.49562278 -99.0234375 103.1328125 C-99.74273437 103.96232422 -99.74273437 103.96232422 -100.4765625 104.80859375 C-102.443473 107.10134786 -104.1547242 109.35162367 -105.7109375 111.9453125 C-107.0234375 114.1328125 -107.0234375 114.1328125 -109.0234375 115.1328125 C-116.505713 126.48580337 -116.505713 126.48580337 -120.0234375 139.1328125 C-120.6834375 139.1328125 -121.3434375 139.1328125 -122.0234375 139.1328125 C-122.19472168 139.67695801 -122.36600586 140.22110352 -122.54248047 140.78173828 C-123.32728372 143.27392577 -124.11285466 145.76587065 -124.8984375 148.2578125 C-125.16785156 149.11375 -125.43726563 149.9696875 -125.71484375 150.8515625 C-125.97910156 151.68945312 -126.24335937 152.52734375 -126.515625 153.390625 C-126.77520996 154.2163501 -127.03479492 155.0420752 -127.30224609 155.89282227 C-127.87213955 157.66288742 -128.4867652 159.41854687 -129.1171875 161.16796875 C-138.90784337 193.19860584 -134.05163575 233.18805782 -118.8581543 262.68359375 C-117.31118112 265.53886213 -115.67797584 268.33879466 -114.0234375 271.1328125 C-113.01874627 272.94271631 -112.01802639 274.75483758 -111.0234375 276.5703125 C-110.35817251 277.75859832 -109.69216174 278.94646998 -109.0234375 280.1328125 C-108.3634375 280.1328125 -107.7034375 280.1328125 -107.0234375 280.1328125 C-106.80300781 280.82503906 -106.58257812 281.51726562 -106.35546875 282.23046875 C-104.69149057 285.8560869 -102.32227839 288.60524416 -99.7109375 291.5703125 C-98.75631053 292.67300407 -97.8018824 293.77586781 -96.84765625 294.87890625 C-96.37473145 295.41942627 -95.90180664 295.95994629 -95.41455078 296.5168457 C-94.07373874 298.07438079 -92.78483104 299.66496565 -91.49609375 301.265625 C-89.08864434 304.05720141 -86.65180744 306.27687447 -83.7734375 308.5703125 C-82.81824219 309.3334375 -81.86304688 310.0965625 -80.87890625 310.8828125 C-79.46544922 311.9965625 -79.46544922 311.9965625 -78.0234375 313.1328125 C-77.17394531 313.8134375 -76.32445312 314.4940625 -75.44921875 315.1953125 C-71.35251746 318.52346019 -71.35251746 318.52346019 -66.83203125 321.19921875 C-65.0234375 322.1328125 -65.0234375 322.1328125 -64.0234375 324.1328125 C-62.20235695 325.15261761 -60.3403003 326.09988504 -58.4609375 327.0078125 C-54.82613846 328.77131524 -51.21767372 330.55327078 -47.6484375 332.4453125 C-44.31538215 333.99690723 -41.65900558 334.76925569 -38.0234375 335.1328125 C-38.0234375 335.7928125 -38.0234375 336.4528125 -38.0234375 337.1328125 C-37.21507446 337.34429932 -37.21507446 337.34429932 -36.39038086 337.56005859 C-33.91368884 338.20850739 -31.43731194 338.858152 -28.9609375 339.5078125 C-28.11337891 339.72953125 -27.26582031 339.95125 -26.39257812 340.1796875 C-25.55791016 340.39882813 -24.72324219 340.61796875 -23.86328125 340.84375 C-23.10394287 341.04274902 -22.34460449 341.24174805 -21.56225586 341.44677734 C-18.37336619 342.30847366 -15.19960273 343.22533672 -12.0234375 344.1328125 C-12.0234375 248.1028125 -12.0234375 152.0728125 -12.0234375 53.1328125 C-16.89101276 53.1328125 -20.27651568 53.50091328 -24.8984375 54.6328125 Z " fill="#000000" transform="translate(207.0234375,9.8671875)"></path>
<path d="M0 0 C0.96844849 -0.0190036 1.93689697 -0.0380072 2.93469238 -0.05758667 C3.9968396 -0.07153473 5.05898682 -0.08548279 6.15332031 -0.09985352 C7.79874817 -0.1229509 7.79874817 -0.1229509 9.47741699 -0.14651489 C55.60481135 -0.67248059 55.60481135 -0.67248059 77.48144531 6.20874023 C78.57714844 6.54615234 79.67285156 6.88356445 80.80175781 7.23120117 C93.75295657 11.32164649 105.87525218 16.43842298 117.65185547 23.19335938 C119.60742616 24.27865674 121.59436083 25.27135765 123.60253906 26.25561523 C143.34410154 36.02495573 162.92500026 53.24045349 176.41503906 70.55639648 C177.77964036 72.30793577 179.18861659 74.02588751 180.64160156 75.70483398 C212.33114397 112.42446248 226.37713554 164.50855506 224.48144531 212.20874023 C224.43576416 213.43584717 224.43576416 213.43584717 224.38916016 214.68774414 C223.03049373 244.76919689 214.28881576 273.84283521 199.68505859 300.04418945 C198.57601233 302.03867306 197.4922436 304.04459729 196.41503906 306.05639648 C191.8767779 314.41503392 186.5105213 321.89079326 180.48144531 329.20874023 C179.77713379 330.06749756 179.77713379 330.06749756 179.05859375 330.94360352 C145.29042799 371.86068196 99.94655646 396.71372436 47.48144531 404.20874023 C47.48144531 433.24874023 47.48144531 462.28874023 47.48144531 492.20874023 C45.02701683 493.43595448 43.42427017 493.33565631 40.68041992 493.33813477 C39.68276108 493.34128693 38.68510223 493.34443909 37.6572113 493.34768677 C36.03686729 493.34465042 36.03686729 493.34465042 34.38378906 493.34155273 C33.27918839 493.34250946 32.17458771 493.34346619 31.03651428 493.3444519 C28.69874006 493.34513324 26.36096396 493.34328219 24.02319336 493.33911133 C20.43045843 493.33375739 16.83784823 493.33906053 13.24511719 493.34545898 C10.97884087 493.34479829 8.71256463 493.34351732 6.44628906 493.34155273 C5.36403549 493.34357697 4.28178192 493.3456012 3.16673279 493.34768677 C2.1722261 493.34453461 1.17771942 493.34138245 0.15307617 493.33813477 C-0.72691544 493.33733917 -1.60690704 493.33654358 -2.51356506 493.33572388 C-4.51855469 493.20874023 -4.51855469 493.20874023 -5.51855469 492.20874023 C-5.6183622 489.60397039 -5.65216762 487.02566528 -5.64439583 484.42035675 C-5.64584927 483.59051102 -5.64730271 482.7606653 -5.64880019 481.90567273 C-5.65248733 479.08874934 -5.64896131 476.27187916 -5.64553833 473.45495605 C-5.64668908 471.42952843 -5.64827629 469.40410101 -5.65026557 467.37867403 C-5.65446525 461.78468564 -5.65236535 456.19071417 -5.64927936 450.5967257 C-5.64702806 444.57485349 -5.65050351 438.5529843 -5.65325928 432.53111267 C-5.65746073 421.4066159 -5.65708002 410.28212459 -5.65434781 399.15762793 C-5.6518364 388.88223009 -5.65117361 378.60683424 -5.65237045 368.33143616 C-5.65244684 367.65095375 -5.65252322 366.97047135 -5.65260192 366.26936826 C-5.65291324 363.50735969 -5.65323164 360.74535112 -5.65356169 357.98334255 C-5.65662357 332.05139674 -5.65384265 306.1194544 -5.64846479 280.18750913 C-5.64371887 257.12736425 -5.64414348 234.0672249 -5.64892578 211.00708008 C-5.65427555 185.12383232 -5.65640646 159.24058762 -5.65331352 133.35733938 C-5.65299278 130.60024103 -5.65267994 127.84314267 -5.65237045 125.08604431 C-5.65229138 124.40713135 -5.6522123 123.72821839 -5.65213082 123.0287323 C-5.65099134 112.75752175 -5.65232736 102.4863134 -5.65485001 92.21510315 C-5.65770279 80.54118718 -5.65691155 68.86727649 -5.65156926 57.19336092 C-5.64893109 51.23084176 -5.64792912 45.26833384 -5.65121841 39.30581474 C-5.65417902 33.8569158 -5.65259253 28.40803861 -5.64724086 22.95914167 C-5.64611566 20.97868256 -5.6467101 18.99822164 -5.64911665 17.01776367 C-5.65211842 14.34419017 -5.64907848 11.67069309 -5.64439583 8.99712372 C-5.64673699 8.21230297 -5.64907816 7.42748222 -5.65149027 6.61887902 C-5.62838473 0.10490091 -5.62838473 0.10490091 0 0 Z M47.48144531 52.20874023 C47.48144531 148.56874023 47.48144531 244.92874023 47.48144531 344.20874023 C67.96717735 339.08730722 86.26156019 333.22109082 103.38769531 320.62670898 C105.48144531 319.20874023 105.48144531 319.20874023 108.48144531 318.20874023 C109.83751704 316.89853986 111.16732824 315.56101679 112.48144531 314.20874023 C115.20112276 311.94301789 117.96310448 309.73592518 120.72753906 307.52514648 C125.34504033 303.6412057 129.25769831 299.39710174 133.04394531 294.70874023 C134.15962891 293.33202148 134.15962891 293.33202148 135.29785156 291.92749023 C136.0184375 291.03030273 136.73902344 290.13311523 137.48144531 289.20874023 C138.14789063 288.39147461 138.81433594 287.57420898 139.50097656 286.73217773 C147.30078474 276.86221969 147.30078474 276.86221969 151.48144531 265.20874023 C152.14144531 265.20874023 152.80144531 265.20874023 153.48144531 265.20874023 C154.42006787 262.87585311 155.35736304 260.54244642 156.29394531 258.20874023 C156.55498047 257.5603418 156.81601562 256.91194336 157.08496094 256.24389648 C170.31726088 223.2448275 172.09747548 192.00416045 163.35644531 157.58374023 C162.94072266 155.93438477 162.94072266 155.93438477 162.51660156 154.25170898 C161.84038565 151.57016312 161.16196255 148.88919712 160.48144531 146.20874023 C159.82144531 146.20874023 159.16144531 146.20874023 158.48144531 146.20874023 C158.23523438 145.06147461 157.98902344 143.91420898 157.73535156 142.73217773 C156.57226604 138.08188512 154.63668146 134.06291149 152.41894531 129.83374023 C152.05478516 129.1234668 151.690625 128.41319336 151.31542969 127.68139648 C150.3773484 125.85378525 149.43005673 124.03090809 148.48144531 122.20874023 C148.15144531 121.54874023 147.82144531 120.88874023 147.48144531 120.20874023 C146.82144531 120.20874023 146.16144531 120.20874023 145.48144531 120.20874023 C145.11986328 119.17426758 145.11986328 119.17426758 144.75097656 118.11889648 C143.25274038 114.68447815 141.30012292 111.70738625 139.16894531 108.64624023 C138.60143555 107.80029297 138.60143555 107.80029297 138.02246094 106.93725586 C135.53903188 103.34447779 132.87895949 100.90057308 129.48144531 98.20874023 C129.16175781 97.5603418 128.84207031 96.91194336 128.51269531 96.24389648 C126.98601238 93.23101085 124.62814558 91.70439794 121.98144531 89.64624023 C118.88680791 87.23160868 116.66530326 85.48452715 114.48144531 82.20874023 C110.32088067 79.24881924 110.32088067 79.24881924 105.48144531 78.20874023 C104.98644531 76.72374023 104.98644531 76.72374023 104.48144531 75.20874023 C102.65122922 74.04719058 102.65122922 74.04719058 100.48144531 73.14624023 C96.58362671 71.41310304 96.58362671 71.41310304 95.48144531 69.20874023 C92.89529147 67.833823 90.32450592 66.56053842 87.66894531 65.33374023 C86.9001001 64.97513916 86.13125488 64.61653809 85.33911133 64.24707031 C80.00742414 61.80326456 74.65299815 59.73948751 69.04394531 58.00952148 C66.77555189 57.30064854 64.61644199 56.48311891 62.41894531 55.58374023 C57.40613451 53.71875806 57.40613451 53.71875806 47.48144531 52.20874023 Z " fill="#000000" transform="translate(271.5185546875,9.791259765625)"></path>
<path d="M0 0 C0.66 0.33 1.32 0.66 2 1 C2.49902344 3.15454102 2.49902344 3.15454102 2.859375 6.00390625 C3.00221924 7.04708008 3.14506348 8.09025391 3.29223633 9.16503906 C3.44329834 10.28620117 3.59436035 11.40736328 3.75 12.5625 C5.94557948 27.39289915 10.23761654 39.54008426 17.6796875 52.5234375 C19 55 19 55 19 57 C19.66 57 20.32 57 21 57 C22.19140625 58.58203125 22.19140625 58.58203125 23.5625 60.8125 C29.65627548 70.2314847 37.27413706 78.54526062 44.65844727 86.96142578 C45.19268311 87.57228027 45.72691895 88.18313477 46.27734375 88.8125 C46.75421631 89.35519531 47.23108887 89.89789063 47.72241211 90.45703125 C50.57250035 93.89914049 51.24977785 95.83185 51.24723816 100.21340942 C51.25143265 101.29309998 51.25562714 102.37279053 51.25994873 103.48519897 C51.25432922 104.66973663 51.24870972 105.85427429 51.24291992 107.07470703 C51.24481827 108.32199585 51.24671661 109.56928467 51.24867249 110.85437012 C51.25174535 114.27572792 51.24586521 117.69684478 51.23571944 121.11817408 C51.22694312 124.69449372 51.22869628 128.27080923 51.2290802 131.84713745 C51.22814357 137.8510761 51.21945856 143.85496422 51.20581055 149.85888672 C51.19007074 156.80887787 51.18481293 163.75881373 51.1855461 170.70882142 C51.18615552 177.38676926 51.18105889 184.06469903 51.17275429 190.74264145 C51.16921598 193.58872493 51.16739026 196.43480202 51.16686058 199.2808876 C51.16567354 203.24863913 51.15597782 207.21634423 51.14526367 211.18408203 C51.14571686 212.37266815 51.14617004 213.56125427 51.14663696 214.78585815 C51.14237198 215.85990906 51.13810699 216.93395996 51.13371277 218.04055786 C51.13203692 218.97965563 51.13036108 219.9187534 51.12863445 220.88630867 C51 223 51 223 50 224 C35.87424609 225.23865162 20.5360215 225.65642447 9 216.375 C1.37727885 208.85018536 -2.18394443 198.72572377 -2.26748681 188.10561174 C-2.26302537 187.40608198 -2.25856392 186.70655222 -2.25396729 185.98582458 C-2.25708727 185.22030386 -2.26020725 184.45478313 -2.26342177 183.6660648 C-2.27134441 181.12291794 -2.26510074 178.58001351 -2.25878906 176.03686523 C-2.26150145 174.20470033 -2.26506378 172.37253652 -2.26940918 170.54037476 C-2.27850528 165.57976555 -2.27500056 160.61923979 -2.26865101 155.65862918 C-2.2635774 150.46089886 -2.26828618 145.26317555 -2.27142334 140.06544495 C-2.27505869 131.33894573 -2.27027485 122.6124804 -2.26074219 113.88598633 C-2.24985507 103.80327021 -2.25338684 93.72063496 -2.264395 83.6379208 C-2.27347608 74.97274663 -2.27474923 66.30759678 -2.26951766 57.6424194 C-2.26640292 52.47067474 -2.26597507 47.29896808 -2.27259064 42.12722588 C-2.27837551 37.26560435 -2.27434627 32.40408695 -2.26280212 27.54247665 C-2.2601618 25.76031098 -2.2609099 23.97813651 -2.26532745 22.19597435 C-2.27080906 19.75959591 -2.26391726 17.3235492 -2.25396729 14.88719177 C-2.26065945 13.83455105 -2.26065945 13.83455105 -2.26748681 12.76064485 C-2.23087248 8.12444811 -1.42754293 4.36193043 0 0 Z " fill="#000000" transform="translate(20,279)"></path>
<path d="M0 0 C0.99 0.33 1.98 0.66 3 1 C3.07018853 17.79443628 3.12303628 34.58882656 3.15543652 51.38337612 C3.17088269 59.18198497 3.19192897 66.98050251 3.22631836 74.77905273 C3.25628985 81.57900893 3.27559135 88.37889896 3.28226548 95.17891937 C3.28616467 98.77701611 3.29528088 102.37492363 3.31719017 105.97295952 C3.34149276 109.99694973 3.34196504 114.0206143 3.34057617 118.04467773 C3.351362 119.22791626 3.36214783 120.41115479 3.3732605 121.63024902 C3.33108165 132.9442223 0.77673682 140.69125301 -7 149 C-14.85817013 156.62558159 -24.4169079 158.36767748 -35.09375 158.3125 C-36.0940625 158.291875 -37.094375 158.27125 -38.125 158.25 C-39.16398437 158.24484375 -40.20296875 158.2396875 -41.2734375 158.234375 C-48.84490741 158.15509259 -48.84490741 158.15509259 -50 157 C-50.11060115 155.5972668 -50.15290064 154.18907116 -50.1673584 152.78205872 C-50.17884918 151.87221222 -50.19033997 150.96236572 -50.20217896 150.02494812 C-50.20958099 149.01873917 -50.21698303 148.01253021 -50.22460938 146.97583008 C-50.23599945 145.92218262 -50.24738953 144.86853516 -50.25912476 143.78295898 C-50.36981293 132.75045323 -50.41721584 121.71727041 -50.45996094 110.68432617 C-50.48224738 105.44506126 -50.52402908 100.20650736 -50.58300781 94.9675293 C-50.6539875 88.65097687 -50.69077777 82.33509445 -50.70307922 76.01816368 C-50.71349899 73.60874985 -50.73596809 71.19935704 -50.77067566 68.79017067 C-50.81676576 65.41636348 -50.81889453 62.04519368 -50.81054688 58.67114258 C-50.83414276 57.67505478 -50.85773865 56.67896698 -50.88204956 55.6526947 C-50.80245478 49.0080879 -50.80245478 49.0080879 -48.4604187 46.06589317 C-46.70757226 44.54526121 -44.95055414 43.25222067 -43 42 C-42.31292969 41.46632813 -41.62585938 40.93265625 -40.91796875 40.3828125 C-40.34691406 39.96773438 -39.77585937 39.55265625 -39.1875 39.125 C-35.03940879 36.07278416 -31.07040019 32.81980449 -27.1015625 29.5390625 C-25 28 -25 28 -23 28 C-23 27.34 -23 26.68 -23 26 C-21.42578125 24.484375 -21.42578125 24.484375 -19.3125 22.75 C-16.64650867 20.49924272 -14.28989909 18.29950455 -12.125 15.5625 C-11.073125 14.2940625 -11.073125 14.2940625 -10 13 C-9.34 13 -8.68 13 -8 13 C-7.731875 12.443125 -7.46375 11.88625 -7.1875 11.3125 C-5.11760016 7.28164242 -2.78183609 3.5766464 0 0 Z " fill="#000000" transform="translate(466,345)"></path>
</svg><style>@media (prefers-color-scheme: light) { :root { filter: none; } }
@media (prefers-color-scheme: dark) { :root { filter: none; } }
</style></svg>